<?xml version="1.0" encoding="UTF-8" standalone="no"?><!DOCTYPE svg PUBLIC "-//W3C//DTD SVG 1.1//EN" "http://www.w3.org/Graphics/SVG/1.1/DTD/svg11.dtd"><svg width="100%" height="100%" viewBox="0 0 531 172" version="1.1" xmlns="http://www.w3.org/2000/svg" xmlns:xlink="http://www.w3.org/1999/xlink" xml:space="preserve" xmlns:serif="http://www.serif.com/" style="fill-rule:evenodd;clip-rule:evenodd;stroke-linejoin:round;stroke-miterlimit:1.41421;"><rect id="ArtBoard1" x="0" y="0" width="531" height="172" style="fill:none;"/><g id="LOGGEN"><path d="M79.649,97.386l14.976,0l0,54.144l27.744,0l0,13.824l-42.72,0l0,-67.968Z" style="fill:#2e1b25;fill-rule:nonzero;"/><path d="M138.777,131.37c0,-5.44 0.912,-10.368 2.736,-14.784c1.824,-4.416 4.368,-8.176 7.632,-11.28c3.264,-3.104 7.136,-5.488 11.616,-7.152c4.48,-1.664 9.376,-2.496 14.688,-2.496c5.312,0 10.208,0.832 14.688,2.496c4.48,1.664 8.352,4.048 11.616,7.152c3.264,3.104 5.808,6.864 7.632,11.28c1.824,4.416 2.736,9.344 2.736,14.784c0,5.44 -0.912,10.368 -2.736,14.784c-1.824,4.416 -4.368,8.176 -7.632,11.28c-3.264,3.104 -7.136,5.488 -11.616,7.152c-4.48,1.664 -9.376,2.496 -14.688,2.496c-5.312,0 -10.208,-0.832 -14.688,-2.496c-4.48,-1.664 -8.352,-4.048 -11.616,-7.152c-3.264,-3.104 -5.808,-6.864 -7.632,-11.28c-1.824,-4.416 -2.736,-9.344 -2.736,-14.784Zm15.552,0c0,3.2 0.496,6.128 1.488,8.784c0.992,2.656 2.416,4.96 4.272,6.912c1.856,1.952 4.08,3.472 6.672,4.56c2.592,1.088 5.488,1.632 8.688,1.632c3.2,0 6.096,-0.544 8.688,-1.632c2.592,-1.088 4.816,-2.608 6.672,-4.56c1.856,-1.952 3.28,-4.256 4.272,-6.912c0.992,-2.656 1.488,-5.584 1.488,-8.784c0,-3.136 -0.496,-6.048 -1.488,-8.736c-0.992,-2.688 -2.416,-5.008 -4.272,-6.96c-1.856,-1.952 -4.08,-3.472 -6.672,-4.56c-2.592,-1.088 -5.488,-1.632 -8.688,-1.632c-3.2,0 -6.096,0.544 -8.688,1.632c-2.592,1.088 -4.816,2.608 -6.672,4.56c-1.856,1.952 -3.28,4.272 -4.272,6.96c-0.992,2.688 -1.488,5.6 -1.488,8.736Z" style="fill:#2e1b25;fill-rule:nonzero;"/><path d="M294.633,160.554c-4.416,2.304 -9.024,3.968 -13.824,4.992c-4.8,1.024 -9.696,1.536 -14.688,1.536c-5.312,0 -10.208,-0.832 -14.688,-2.496c-4.48,-1.664 -8.352,-4.048 -11.616,-7.152c-3.264,-3.104 -5.808,-6.864 -7.632,-11.28c-1.824,-4.416 -2.736,-9.344 -2.736,-14.784c0,-5.44 0.912,-10.368 2.736,-14.784c1.824,-4.416 4.368,-8.176 7.632,-11.28c3.264,-3.104 7.136,-5.488 11.616,-7.152c4.48,-1.664 9.376,-2.496 14.688,-2.496c5.44,0 10.448,0.656 15.024,1.968c4.576,1.312 8.592,3.568 12.048,6.768l-10.56,11.52c-2.048,-2.112 -4.352,-3.712 -6.912,-4.8c-2.56,-1.088 -5.76,-1.632 -9.6,-1.632c-3.2,0 -6.096,0.544 -8.688,1.632c-2.592,1.088 -4.816,2.608 -6.672,4.56c-1.856,1.952 -3.28,4.272 -4.272,6.96c-0.992,2.688 -1.488,5.6 -1.488,8.736c0,3.2 0.496,6.128 1.488,8.784c0.992,2.656 2.416,4.96 4.272,6.912c1.856,1.952 4.08,3.472 6.672,4.56c2.592,1.088 5.488,1.632 8.688,1.632c3.264,0 6.08,-0.368 8.448,-1.104c2.368,-0.736 4.256,-1.488 5.664,-2.256l0,-11.04l-12.192,0l0,-13.824l26.592,0l0,35.52Z" style="fill:#2e1b25;fill-rule:nonzero;"/><path d="M377.121,160.554c-4.416,2.304 -9.024,3.968 -13.824,4.992c-4.8,1.024 -9.696,1.536 -14.688,1.536c-5.312,0 -10.208,-0.832 -14.688,-2.496c-4.48,-1.664 -8.352,-4.048 -11.616,-7.152c-3.264,-3.104 -5.808,-6.864 -7.632,-11.28c-1.824,-4.416 -2.736,-9.344 -2.736,-14.784c0,-5.44 0.912,-10.368 2.736,-14.784c1.824,-4.416 4.368,-8.176 7.632,-11.28c3.264,-3.104 7.136,-5.488 11.616,-7.152c4.48,-1.664 9.376,-2.496 14.688,-2.496c5.44,0 10.448,0.656 15.024,1.968c4.576,1.312 8.592,3.568 12.048,6.768l-10.56,11.52c-2.048,-2.112 -4.352,-3.712 -6.912,-4.8c-2.56,-1.088 -5.76,-1.632 -9.6,-1.632c-3.2,0 -6.096,0.544 -8.688,1.632c-2.592,1.088 -4.816,2.608 -6.672,4.56c-1.856,1.952 -3.28,4.272 -4.272,6.96c-0.992,2.688 -1.488,5.6 -1.488,8.736c0,3.2 0.496,6.128 1.488,8.784c0.992,2.656 2.416,4.96 4.272,6.912c1.856,1.952 4.08,3.472 6.672,4.56c2.592,1.088 5.488,1.632 8.688,1.632c3.264,0 6.08,-0.368 8.448,-1.104c2.368,-0.736 4.256,-1.488 5.664,-2.256l0,-11.04l-12.192,0l0,-13.824l26.592,0l0,35.52Z" style="fill:#2e1b25;fill-rule:nonzero;"/><path d="M395.649,151.53l47.376,0l0,13.824l-47.376,0l0,-13.824Zm0,-13.824l0,-13.824l36.448,0l0,13.824l-36.448,0Zm45.176,-26.496l-45.176,0l0,-13.824l45.176,0l0,13.824Z" style="fill:#2e1b25;fill-rule:nonzero;"/><path d="M460.353,97.386l20.352,0l28.896,47.232l0.192,0l0,-47.232l14.976,0l0,67.968l-19.584,0l-29.664,-48.384l-0.192,0l0,48.384l-14.976,0l0,-67.968Z" style="fill:#2e1b25;fill-rule:nonzero;"/></g><g id="CHANGE"><path d="M53.327,23.76c-1.472,-1.792 -3.28,-3.168 -5.424,-4.128c-2.144,-0.96 -4.624,-1.44 -7.44,-1.44c-2.816,0 -5.424,0.544 -7.824,1.632c-2.4,1.088 -4.48,2.608 -6.24,4.56c-1.76,1.952 -3.136,4.272 -4.128,6.96c-0.992,2.688 -1.488,5.6 -1.488,8.736c0,3.2 0.496,6.128 1.488,8.784c0.992,2.656 2.352,4.96 4.08,6.912c1.728,1.952 3.76,3.472 6.096,4.56c2.336,1.088 4.848,1.632 7.536,1.632c3.072,0 5.792,-0.64 8.16,-1.92c2.368,-1.28 4.32,-3.072 5.856,-5.376l12.48,9.312c-2.88,4.032 -6.528,7.008 -10.944,8.928c-4.416,1.92 -8.96,2.88 -13.632,2.88c-5.312,0 -10.208,-0.832 -14.688,-2.496c-4.48,-1.664 -8.352,-4.048 -11.616,-7.152c-3.264,-3.104 -5.808,-6.864 -7.632,-11.28c-1.824,-4.416 -2.736,-9.344 -2.736,-14.784c0,-5.44 0.912,-10.368 2.736,-14.784c1.824,-4.416 4.368,-8.176 7.632,-11.28c3.264,-3.104 7.136,-5.488 11.616,-7.152c4.48,-1.664 9.376,-2.496 14.688,-2.496c1.92,0 3.92,0.176 6,0.528c2.08,0.352 4.128,0.912 6.144,1.68c2.016,0.768 3.952,1.792 5.808,3.072c1.856,1.28 3.52,2.848 4.992,4.704l-11.52,9.408Z" style="fill:#2e1b25;fill-rule:nonzero;"/><path d="M79.439,6.096l14.976,0l0,25.344l29.088,0l0,-25.344l14.976,0l0,67.968l-14.976,0l0,-29.376l-29.088,0l0,29.376l-14.976,0l0,-67.968Z" style="fill:#2e1b25;fill-rule:nonzero;"/><path d="M179.471,6.096l12.384,0l29.568,67.968l-16.896,0l-5.856,-14.4l-26.4,0l-5.664,14.4l-16.512,0l29.376,-67.968Zm5.76,19.776l-8.256,21.12l16.608,0l-8.352,-21.12Z" style="fill:#2e1b25;fill-rule:nonzero;"/><path d="M233.039,6.096l20.352,0l28.896,47.232l0.192,0l0,-47.232l14.976,0l0,67.968l-19.584,0l-29.664,-48.384l-0.192,0l0,48.384l-14.976,0l0,-67.968Z" style="fill:#2e1b25;fill-rule:nonzero;"/><path d="M377.615,69.264c-4.416,2.304 -9.024,3.968 -13.824,4.992c-4.8,1.024 -9.696,1.536 -14.688,1.536c-5.312,0 -10.208,-0.832 -14.688,-2.496c-4.48,-1.664 -8.352,-4.048 -11.616,-7.152c-3.264,-3.104 -5.808,-6.864 -7.632,-11.28c-1.824,-4.416 -2.736,-9.344 -2.736,-14.784c0,-5.44 0.912,-10.368 2.736,-14.784c1.824,-4.416 4.368,-8.176 7.632,-11.28c3.264,-3.104 7.136,-5.488 11.616,-7.152c4.48,-1.664 9.376,-2.496 14.688,-2.496c5.44,0 10.448,0.656 15.024,1.968c4.576,1.312 8.592,3.568 12.048,6.768l-10.56,11.52c-2.048,-2.112 -4.352,-3.712 -6.912,-4.8c-2.56,-1.088 -5.76,-1.632 -9.6,-1.632c-3.2,0 -6.096,0.544 -8.688,1.632c-2.592,1.088 -4.816,2.608 -6.672,4.56c-1.856,1.952 -3.28,4.272 -4.272,6.96c-0.992,2.688 -1.488,5.6 -1.488,8.736c0,3.2 0.496,6.128 1.488,8.784c0.992,2.656 2.416,4.96 4.272,6.912c1.856,1.952 4.08,3.472 6.672,4.56c2.592,1.088 5.488,1.632 8.688,1.632c3.264,0 6.08,-0.368 8.448,-1.104c2.368,-0.736 4.256,-1.488 5.664,-2.256l0,-11.04l-12.192,0l0,-13.824l26.592,0l0,35.52Z" style="fill:#2e1b25;fill-rule:nonzero;"/><path d="M444.047,74.064l-47.904,0l0,-13.824l47.904,0l0,13.824Zm-47.904,-41.472l40.448,0l0,13.824l-40.448,0l0,-13.824Zm0,-12.672l0,-13.824l54.176,0l0,13.824l-54.176,0Z" style="fill:#2e1b25;fill-rule:nonzero;"/></g></svg>